PathFileType	4	(X/Y/Z)	Patient4_TMGait_0pt2_01_left_12.trc.trc
DataRate	CameraRate	NumFrames	NumMarkers	Units	OrigDataRate	OrigDataStartFrame	OrigNumFrames
39.660056657224	39.660056657224	4	33	mm	39.660056657224	89	       141
Frame#	Time	Sacral			L.Shoulder			Chest			R.Shoulder			Neck			R.ASIS			L.ASIS			R.Thigh.Superior			R.Thigh.Lateral			R.Thigh.Inferior			R.Patella			L.Thigh.Superior			L.Thigh.Lateral			L.Thigh.Inferior			L.Patella			L.Shank.Superior			L.Shank.Lateral			L.Shank.Inferior			R.Shank.Superior			R.Shank.Lateral			R.Shank.Inferior			R.Heel			R.Midfoot.Superior			R.Midfoot.Lateral			R.Toe			L.Heel			L.Midfoot.Lateral			L.Midfoot.Superior			L.Toe			L.Elbow			L.Wrist			R.Elbow			R.Wrist			
		X1	Y1	Z1	X2	Y2	Z2	X3	Y3	Z3	X4	Y4	Z4	X5	Y5	Z5	X6	Y6	Z6	X7	Y7	Z7	X8	Y8	Z8	X9	Y9	Z9	X10	Y10	Z10	X11	Y11	Z11	X12	Y12	Z12	X13	Y13	Z13	X14	Y14	Z14	X15	Y15	Z15	X16	Y16	Z16	X17	Y17	Z17	X18	Y18	Z18	X19	Y19	Z19	X20	Y20	Z20	X21	Y21	Z21	X22	Y22	Z22	X23	Y23	Z23	X24	Y24	Z24	X25	Y25	Z25	X26	Y26	Z26	X27	Y27	Z27	X28	Y28	Z28	X29	Y29	Z29	X30	Y30	Z30	X31	Y31	Z31	X32	Y32	Z32	X33	Y33	Z33	

89	29.168857142857	741.278147557341	1014.595001092893	541.376830907241	980.833819157596	1429.307953781063	385.151898517714	1053.515845890086	1350.850713429576	557.419118455967	954.566724315836	1432.872294490594	718.871864436556	958.451456177276	1491.610614897671	539.135092089938	957.842554418335	935.581469722695	676.948170903376	966.188726776307	959.162399522451	400.449044663507	1009.364980146662	744.115226316212	636.579683539333	937.695293753321	629.885038901750	695.469207812227	1016.067267544851	583.558547544554	611.886300462028	1023.146522274630	495.510779605237	617.236152201150	987.266593864238	735.734931771192	424.799317961280	895.045891467323	631.711729299201	345.770755573279	965.225606273894	542.247124127869	412.156935573732	959.016786845227	468.775215649054	412.512087586396	912.604929463448	406.750529204041	395.346651138985	802.389048314201	320.579936169707	327.520740401052	823.493490350320	192.656486168645	385.374357317893	994.961577881994	405.446351769924	625.297310465652	928.811780200509	302.109328402899	694.032671605917	964.348108099288	206.866271224577	627.617181670967	826.877432047095	43.190199040795	612.571477571669	1000.885985015006	97.421624288066	632.751432475337	916.761712383475	37.450779167940	679.489393773420	1123.027606852926	45.969984183176	649.905478563137	665.948203451459	53.958721582061	403.332746559227	745.414773272116	44.183750985019	328.880901368055	832.985251438312	97.076142132112	361.668132992242	957.390781667655	35.725749389024	339.841075569698	1041.074526163340	1090.636788446622	254.817644516167	1282.126574553763	1038.673069814574	330.224737754485	847.309241234067	1100.384343866468	832.657039105944	949.670242670951	861.170381817553	855.635982465149	
90	29.194071428571	740.841346913068	1014.993525037838	549.695553206795	977.580798339306	1429.704140475143	390.200080587033	1052.682143370966	1351.622667361968	561.628734243397	955.683098817635	1433.657104705071	724.276041083664	956.848557447567	1492.283126305494	544.436835981707	958.598475489901	935.999496334102	682.808308860092	964.549106997844	959.961093875114	406.271131963438	1008.365250455035	743.548070691096	641.882583676211	935.822390187647	629.606215042014	700.386897843356	1013.339815336987	583.149971454740	616.165156045721	1019.533915476897	495.121353697036	620.841686073717	988.465587653784	737.920059255951	429.917721206129	897.865417390026	632.848824418068	350.733057320984	970.444351964868	543.906643907036	415.974972738199	964.941111690111	469.175363039089	415.433050744309	916.507381159709	408.037393474686	398.486627998324	803.652400759803	325.405861395624	330.874165167594	822.751210585842	196.426259665302	387.069710901824	991.249541486030	405.165462526073	628.184299378660	925.010050634932	301.413741556923	696.067899409154	960.096970478112	206.650436806605	628.721908122389	822.017898917738	43.278785350385	612.638879257729	996.215835785786	97.352264181728	633.009801419463	911.903144061022	37.473079855778	679.515639373738	1118.272618859288	45.340863022731	649.985789620814	662.221654571887	62.085002351890	404.409093179525	740.953595611992	49.657139688578	329.864388639057	830.127307046226	99.442355227896	362.370415876973	951.815082269989	34.843575325936	340.302678558928	1028.213340194960	1087.577285294827	262.256912800688	1264.857924241486	1015.635472925398	335.745465178864	858.764295772007	1099.978928539607	843.900773162433	975.355321645250	867.779472001538	867.831619079274	
91	29.219285714286	740.230550032005	1015.220100114828	557.447252773901	973.900594312646	1430.021514392782	394.934661115187	1051.407432760120	1352.446333729693	565.545872165355	956.208084328521	1434.451712507753	729.324657697523	954.730941025838	1492.907301995009	549.395838291774	959.103624508258	936.362167850315	688.351569846702	962.974610376721	960.750508106110	411.905292732365	1007.342662651813	742.976328618621	647.014384490792	933.883030221381	629.296788122069	705.067653306154	1010.694300533622	582.731256714660	620.352739944709	1016.043582932493	494.715701789861	624.400447681108	990.645320534373	740.631733476993	435.074369035968	902.470595235846	634.011950310316	355.769046120883	977.773338004285	546.064150399240	420.069887998645	973.074693884975	469.785624685985	418.555383752294	922.234394652334	409.490025773109	401.926995022198	806.399756504697	331.419337172307	334.591810483155	822.346012558831	201.572361073998	389.241045065222	987.614001534303	404.875147936835	631.017790641181	921.176691436767	300.757535591730	698.020380915583	955.876229890200	206.455290120796	629.822423831094	817.119460771121	43.380865337324	612.693452012809	991.527066010892	97.286293708190	633.255817088125	907.001889322240	37.495517686686	679.522104312833	1113.468855668592	44.711586585155	650.056897851338	658.143920566682	73.414678719211	406.034442450032	735.755647807622	57.689537643349	331.354126839846	826.726188743342	103.317101253538	363.578355702069	944.622421377585	34.380561369448	341.225142859707	1014.273964741774	1084.646818431491	269.442415945501	1244.242043410628	991.394224505633	340.086400783905	870.233889694214	1099.864680234211	854.681293978623	1001.348128985974	876.042323753241	878.982970548899	
92	29.244500000000	739.445105493681	1015.239919954893	564.566825077111	969.816491169974	1430.230119381861	399.333304743526	1049.658980698597	1353.308316135734	569.180088120784	956.035909953167	1435.230821976717	733.991311019494	952.058814038173	1493.454050098676	553.979211391124	959.363203118533	936.668225493714	693.593981730446	961.488185395097	961.471748540963	417.364452500330	1006.387587555982	742.424999869403	651.950027516924	931.995768353058	628.936983930373	709.454401768998	1008.263780342469	582.299288897281	624.388215525331	1012.843388839693	494.263113644427	627.829578972858	993.779451609716	743.813868016376	440.331166930883	908.826970465126	635.210432503590	360.900418909058	987.092623279838	548.727768733595	424.516868231880	983.277465614708	470.644881703156	421.960763140578	929.653168667688	411.118474534349	405.709024137575	810.545575402071	338.735039658067	338.708976025003	822.064128824929	208.277102402231	391.937191106041	984.175176888230	404.550137019452	633.728747134019	917.410308432549	300.145283977458	699.858064107020	951.726768362949	206.268408003856	630.887601561733	812.181521186258	43.494080200349	612.738293763910	986.808356069217	97.228657394551	633.478629389641	902.055688841510	37.521547811011	679.514629878176	1108.611320161021	44.115329144083	650.125018586944	653.538206238128	88.333026940239	408.275174636334	729.590901561980	68.673310048693	333.413671810508	822.482545155234	109.000165559367	365.365090633360	935.397246689060	34.582141907680	342.658838078324	999.479752307232	1081.905686277616	276.381452479831	1220.165844298344	966.517215188361	343.181016018579	881.553683099388	1100.006649021651	864.825337032790	1027.363008730261	886.045830488663	888.989238861785	
